<svg xmlns="http://www.w3.org/2000/svg" xmlns:xlink="http://www.w3.org/1999/xlink" width="480" zoomAndPan="magnify" viewBox="0 0 360 127.500001" height="170" preserveAspectRatio="xMidYMid meet" version="1.2"><defs><clipPath id="f42732d1aa"><path d="M 6 0 L 350 0 L 350 127.003906 L 6 127.003906 Z M 6 0 "/></clipPath><clipPath id="60df9308f2"><rect x="0" width="67" y="0" height="55"/></clipPath><clipPath id="c14eb381d8"><path d="M 217 56 L 343.257812 56 L 343.257812 110 L 217 110 Z M 217 56 "/></clipPath><clipPath id="e24b1cd35c"><rect x="0" width="127" y="0" height="54"/></clipPath><clipPath id="a615a9f9d6"><rect x="0" width="344" y="0" height="128"/></clipPath></defs><g id="98fbaaf0ad"><g clip-rule="nonzero" clip-path="url(#f42732d1aa)"><g transform="matrix(1,0,0,1,6,-0.000000000000017289)"><g clip-path="url(#a615a9f9d6)"><g style="fill:#ffffff;fill-opacity:1;"><g transform="translate(1.747384, 73.448756)"><path style="stroke:none" d="M 17.15625 0 L -0.34375 -42.96875 L 11.09375 -42.96875 L 21.5 -13.546875 L 31.953125 -42.96875 L 43.359375 -42.96875 L 25.8125 0 Z M 17.15625 0 "/></g></g><g style="fill:#ffffff;fill-opacity:1;"><g transform="translate(40.315416, 73.448756)"><path style="stroke:none" d="M 24.125 0.859375 C 20.425781 0.859375 17.210938 0.257812 14.484375 -0.9375 C 11.765625 -2.144531 9.5 -3.796875 7.6875 -5.890625 C 5.882812 -7.984375 4.546875 -10.351562 3.671875 -13 C 2.796875 -15.65625 2.359375 -18.429688 2.359375 -21.328125 C 2.359375 -24.140625 2.773438 -26.878906 3.609375 -29.546875 C 4.441406 -32.210938 5.71875 -34.628906 7.4375 -36.796875 C 9.15625 -38.960938 11.34375 -40.679688 14 -41.953125 C 16.65625 -43.234375 19.800781 -43.875 23.4375 -43.875 C 26.445312 -43.875 29.0625 -43.4375 31.28125 -42.5625 C 33.507812 -41.6875 35.394531 -40.503906 36.9375 -39.015625 C 38.488281 -37.523438 39.738281 -35.835938 40.6875 -33.953125 C 41.632812 -32.078125 42.316406 -30.128906 42.734375 -28.109375 C 43.148438 -26.085938 43.359375 -24.117188 43.359375 -22.203125 C 43.359375 -21.304688 43.320312 -20.472656 43.25 -19.703125 C 43.175781 -18.929688 43.082031 -18.382812 42.96875 -18.0625 L 13.46875 -18.0625 C 13.78125 -16.195312 14.34375 -14.554688 15.15625 -13.140625 C 15.976562 -11.722656 17.132812 -10.617188 18.625 -9.828125 C 20.113281 -9.035156 21.976562 -8.640625 24.21875 -8.640625 C 26.164062 -8.640625 28 -8.984375 29.71875 -9.671875 C 31.4375 -10.359375 33.046875 -11.535156 34.546875 -13.203125 L 41.765625 -6.875 C 39.410156 -4.269531 36.785156 -2.328125 33.890625 -1.046875 C 30.992188 0.222656 27.738281 0.859375 24.125 0.859375 Z M 13.46875 -25.640625 L 33.03125 -25.640625 C 32.6875 -28.703125 31.664062 -31.035156 29.96875 -32.640625 C 28.28125 -34.253906 26.078125 -35.0625 23.359375 -35.0625 C 21.296875 -35.0625 19.597656 -34.648438 18.265625 -33.828125 C 16.929688 -33.015625 15.882812 -31.894531 15.125 -30.46875 C 14.363281 -29.050781 13.8125 -27.441406 13.46875 -25.640625 Z M 13.46875 -25.640625 "/></g></g><g style="fill:#ffffff;fill-opacity:1;"><g transform="translate(81.808541, 73.448756)"><path style="stroke:none" d="M 14.96875 0.859375 C 13.332031 0.859375 11.832031 0.597656 10.46875 0.078125 C 9.113281 -0.429688 8.023438 -1.367188 7.203125 -2.734375 C 6.390625 -4.097656 5.984375 -6.039062 5.984375 -8.5625 L 5.984375 -60.78125 L 16.46875 -60.78125 L 16.46875 -11.4375 C 16.46875 -10.4375 16.773438 -9.707031 17.390625 -9.25 C 18.015625 -8.789062 18.859375 -8.5625 19.921875 -8.5625 C 20.234375 -8.5625 20.65625 -8.582031 21.1875 -8.625 C 21.71875 -8.664062 22.253906 -8.726562 22.796875 -8.8125 L 22.796875 0 C 21.703125 0.195312 20.4375 0.390625 19 0.578125 C 17.570312 0.765625 16.226562 0.859375 14.96875 0.859375 Z M 14.96875 0.859375 "/></g></g><g style="fill:#ffffff;fill-opacity:1;"><g transform="translate(102.051727, 73.448756)"><path style="stroke:none" d="M 24.21875 0.859375 C 20.894531 0.859375 17.882812 0.265625 15.1875 -0.921875 C 12.488281 -2.109375 10.171875 -3.734375 8.234375 -5.796875 C 6.296875 -7.867188 4.800781 -10.257812 3.75 -12.96875 C 2.707031 -15.675781 2.1875 -18.550781 2.1875 -21.59375 C 2.1875 -24.632812 2.707031 -27.492188 3.75 -30.171875 C 4.800781 -32.859375 6.296875 -35.222656 8.234375 -37.265625 C 10.171875 -39.316406 12.488281 -40.929688 15.1875 -42.109375 C 17.882812 -43.285156 20.894531 -43.875 24.21875 -43.875 C 27.539062 -43.875 30.550781 -43.285156 33.25 -42.109375 C 35.945312 -40.929688 38.257812 -39.316406 40.1875 -37.265625 C 42.125 -35.222656 43.613281 -32.859375 44.65625 -30.171875 C 45.707031 -27.492188 46.234375 -24.632812 46.234375 -21.59375 C 46.234375 -18.550781 45.707031 -15.675781 44.65625 -12.96875 C 43.613281 -10.257812 42.125 -7.867188 40.1875 -5.796875 C 38.257812 -3.734375 35.945312 -2.109375 33.25 -0.921875 C 30.550781 0.265625 27.539062 0.859375 24.21875 0.859375 Z M 24.21875 -8.171875 C 26.195312 -8.171875 27.894531 -8.535156 29.3125 -9.265625 C 30.726562 -9.992188 31.875 -10.984375 32.75 -12.234375 C 33.625 -13.484375 34.269531 -14.914062 34.6875 -16.53125 C 35.101562 -18.15625 35.3125 -19.84375 35.3125 -21.59375 C 35.3125 -23.375 35.101562 -25.050781 34.6875 -26.625 C 34.269531 -28.195312 33.625 -29.597656 32.75 -30.828125 C 31.875 -32.066406 30.726562 -33.035156 29.3125 -33.734375 C 27.894531 -34.441406 26.195312 -34.796875 24.21875 -34.796875 C 21.582031 -34.796875 19.445312 -34.1875 17.8125 -32.96875 C 16.175781 -31.75 14.984375 -30.132812 14.234375 -28.125 C 13.492188 -26.125 13.125 -23.945312 13.125 -21.59375 C 13.125 -19.84375 13.328125 -18.15625 13.734375 -16.53125 C 14.148438 -14.914062 14.800781 -13.484375 15.6875 -12.234375 C 16.582031 -10.984375 17.734375 -9.992188 19.140625 -9.265625 C 20.546875 -8.535156 22.238281 -8.171875 24.21875 -8.171875 Z M 24.21875 -8.171875 "/></g></g><g style="fill:#ffffff;fill-opacity:1;"><g transform="translate(102.990144, 110.677374)"><path style="stroke:none" d="M 14.90625 0.53125 C 12.625 0.53125 10.640625 0.160156 8.953125 -0.578125 C 7.273438 -1.328125 5.875 -2.347656 4.75 -3.640625 C 3.632812 -4.929688 2.804688 -6.394531 2.265625 -8.03125 C 1.734375 -9.675781 1.46875 -11.394531 1.46875 -13.1875 C 1.46875 -14.914062 1.722656 -16.601562 2.234375 -18.25 C 2.742188 -19.90625 3.53125 -21.398438 4.59375 -22.734375 C 5.65625 -24.066406 7.003906 -25.128906 8.640625 -25.921875 C 10.285156 -26.710938 12.234375 -27.109375 14.484375 -27.109375 C 16.335938 -27.109375 17.953125 -26.835938 19.328125 -26.296875 C 20.703125 -25.753906 21.867188 -25.019531 22.828125 -24.09375 C 23.785156 -23.175781 24.554688 -22.132812 25.140625 -20.96875 C 25.722656 -19.8125 26.140625 -18.609375 26.390625 -17.359375 C 26.648438 -16.109375 26.78125 -14.894531 26.78125 -13.71875 C 26.78125 -13.164062 26.757812 -12.648438 26.71875 -12.171875 C 26.675781 -11.691406 26.617188 -11.351562 26.546875 -11.15625 L 8.3125 -11.15625 C 8.507812 -10.007812 8.859375 -8.992188 9.359375 -8.109375 C 9.867188 -7.234375 10.582031 -6.550781 11.5 -6.0625 C 12.425781 -5.582031 13.578125 -5.34375 14.953125 -5.34375 C 16.160156 -5.34375 17.296875 -5.550781 18.359375 -5.96875 C 19.421875 -6.394531 20.414062 -7.125 21.34375 -8.15625 L 25.796875 -4.25 C 24.347656 -2.632812 22.726562 -1.429688 20.9375 -0.640625 C 19.144531 0.140625 17.132812 0.53125 14.90625 0.53125 Z M 8.3125 -15.84375 L 20.40625 -15.84375 C 20.195312 -17.738281 19.566406 -19.179688 18.515625 -20.171875 C 17.472656 -21.160156 16.109375 -21.65625 14.421875 -21.65625 C 13.148438 -21.65625 12.101562 -21.398438 11.28125 -20.890625 C 10.457031 -20.390625 9.8125 -19.703125 9.34375 -18.828125 C 8.875 -17.953125 8.53125 -16.957031 8.3125 -15.84375 Z M 8.3125 -15.84375 "/></g></g><g style="fill:#ffffff;fill-opacity:1;"><g transform="translate(128.619538, 110.677374)"><path style="stroke:none" d="M 3.859375 0 L 3.859375 -26.546875 L 10.171875 -26.546875 L 10.171875 -22.078125 C 10.566406 -23.160156 11.128906 -24.070312 11.859375 -24.8125 C 12.597656 -25.5625 13.441406 -26.128906 14.390625 -26.515625 C 15.335938 -26.910156 16.304688 -27.109375 17.296875 -27.109375 C 18.179688 -27.109375 19.050781 -26.953125 19.90625 -26.640625 C 20.769531 -26.328125 21.519531 -25.84375 22.15625 -25.1875 L 19.21875 -19.875 C 18.3125 -20.476562 17.34375 -20.78125 16.3125 -20.78125 C 15.550781 -20.78125 14.800781 -20.597656 14.0625 -20.234375 C 13.332031 -19.867188 12.671875 -19.300781 12.078125 -18.53125 C 11.484375 -17.757812 11.007812 -16.765625 10.65625 -15.546875 C 10.300781 -14.335938 10.125 -12.894531 10.125 -11.21875 L 10.125 0 Z M 3.859375 0 "/></g></g><g style="fill:#ffffff;fill-opacity:1;"><g transform="translate(147.553298, 110.677374)"><path style="stroke:none" d="M 3.90625 11.640625 L 3.90625 -26.546875 L 10.5 -26.546875 L 10.5 -23.890625 C 11.4375 -25.035156 12.5625 -25.859375 13.875 -26.359375 C 15.1875 -26.859375 16.550781 -27.109375 17.96875 -27.109375 C 19.820312 -27.109375 21.460938 -26.738281 22.890625 -26 C 24.316406 -25.269531 25.515625 -24.257812 26.484375 -22.96875 C 27.460938 -21.6875 28.195312 -20.210938 28.6875 -18.546875 C 29.1875 -16.878906 29.4375 -15.125 29.4375 -13.28125 C 29.4375 -11.4375 29.1875 -9.6875 28.6875 -8.03125 C 28.195312 -6.375 27.46875 -4.90625 26.5 -3.625 C 25.539062 -2.34375 24.351562 -1.328125 22.9375 -0.578125 C 21.53125 0.160156 19.90625 0.53125 18.0625 0.53125 C 16.664062 0.53125 15.289062 0.285156 13.9375 -0.203125 C 12.582031 -0.703125 11.4375 -1.519531 10.5 -2.65625 L 10.5 11.640625 Z M 16.375 -5.453125 C 17.851562 -5.453125 19.070312 -5.796875 20.03125 -6.484375 C 20.988281 -7.171875 21.695312 -8.101562 22.15625 -9.28125 C 22.625 -10.457031 22.859375 -11.789062 22.859375 -13.28125 C 22.859375 -14.769531 22.625 -16.117188 22.15625 -17.328125 C 21.695312 -18.546875 20.988281 -19.507812 20.03125 -20.21875 C 19.070312 -20.925781 17.851562 -21.28125 16.375 -21.28125 C 14.894531 -21.28125 13.675781 -20.925781 12.71875 -20.21875 C 11.769531 -19.507812 11.0625 -18.546875 10.59375 -17.328125 C 10.132812 -16.117188 9.90625 -14.769531 9.90625 -13.28125 C 9.90625 -11.789062 10.132812 -10.457031 10.59375 -9.28125 C 11.0625 -8.101562 11.769531 -7.171875 12.71875 -6.484375 C 13.675781 -5.796875 14.894531 -5.453125 16.375 -5.453125 Z M 16.375 -5.453125 "/></g></g><path style="fill:none;stroke-width:4;stroke-linecap:butt;stroke-linejoin:miter;stroke:#ffffff;stroke-opacity:1;stroke-miterlimit:4;" d="M -0.000525457 1.998619 L 138.89079 1.998619 " transform="matrix(0,-0.777361,0.777361,0,196.626038,114.952717)"/><g transform="matrix(1,0,0,1,217,11)"><g id="c71a74a013" clip-path="url(#60df9308f2)"><g style="fill:#ffffff;fill-opacity:1;"><g transform="translate(1.062096, 40.985259)"><path style="stroke:none" d="M 9.046875 0.4375 C 7.578125 0.4375 6.242188 0.160156 5.046875 -0.390625 C 3.859375 -0.941406 2.914062 -1.742188 2.21875 -2.796875 C 1.53125 -3.859375 1.1875 -5.140625 1.1875 -6.640625 C 1.1875 -7.804688 1.40625 -8.789062 1.84375 -9.59375 C 2.289062 -10.394531 2.898438 -11.035156 3.671875 -11.515625 C 4.453125 -12.003906 5.363281 -12.351562 6.40625 -12.5625 C 7.457031 -12.78125 8.585938 -12.890625 9.796875 -12.890625 L 15.421875 -12.890625 C 15.421875 -14.265625 15.0625 -15.367188 14.34375 -16.203125 C 13.625 -17.046875 12.566406 -17.46875 11.171875 -17.46875 C 10.347656 -17.46875 9.609375 -17.320312 8.953125 -17.03125 C 8.296875 -16.738281 7.734375 -16.359375 7.265625 -15.890625 C 6.796875 -15.429688 6.398438 -14.9375 6.078125 -14.40625 L 2.03125 -17.328125 C 2.726562 -18.285156 3.507812 -19.113281 4.375 -19.8125 C 5.238281 -20.519531 6.222656 -21.070312 7.328125 -21.46875 C 8.441406 -21.863281 9.707031 -22.0625 11.125 -22.0625 C 13.082031 -22.0625 14.753906 -21.679688 16.140625 -20.921875 C 17.535156 -20.171875 18.601562 -19.117188 19.34375 -17.765625 C 20.09375 -16.421875 20.46875 -14.867188 20.46875 -13.109375 L 20.46875 0 L 16.125 0 L 15.765625 -3.09375 C 14.847656 -1.738281 13.816406 -0.8125 12.671875 -0.3125 C 11.535156 0.1875 10.328125 0.4375 9.046875 0.4375 Z M 9.796875 -4.03125 C 10.546875 -4.03125 11.253906 -4.160156 11.921875 -4.421875 C 12.597656 -4.691406 13.191406 -5.0625 13.703125 -5.53125 C 14.210938 -6.007812 14.625 -6.550781 14.9375 -7.15625 C 15.25 -7.769531 15.410156 -8.414062 15.421875 -9.09375 L 10.109375 -9.09375 C 8.910156 -9.09375 8.023438 -8.820312 7.453125 -8.28125 C 6.878906 -7.75 6.59375 -7.144531 6.59375 -6.46875 C 6.59375 -5.757812 6.867188 -5.175781 7.421875 -4.71875 C 7.984375 -4.257812 8.773438 -4.03125 9.796875 -4.03125 Z M 9.796875 -4.03125 "/></g></g><g style="fill:#ffffff;fill-opacity:1;"><g transform="translate(21.804992, 40.985259)"><path style="stroke:none" d="M 16.796875 -30.578125 L 22.15625 -30.578125 L 22.15625 0 L 17.25 0 L 17 -2.421875 C 16.25 -1.410156 15.316406 -0.679688 14.203125 -0.234375 C 13.085938 0.210938 11.929688 0.4375 10.734375 0.4375 C 9.210938 0.4375 7.867188 0.140625 6.703125 -0.453125 C 5.535156 -1.054688 4.554688 -1.878906 3.765625 -2.921875 C 2.972656 -3.972656 2.375 -5.171875 1.96875 -6.515625 C 1.5625 -7.867188 1.359375 -9.300781 1.359375 -10.8125 C 1.359375 -12.3125 1.5625 -13.734375 1.96875 -15.078125 C 2.375 -16.429688 2.96875 -17.628906 3.75 -18.671875 C 4.539062 -19.722656 5.507812 -20.550781 6.65625 -21.15625 C 7.8125 -21.757812 9.140625 -22.0625 10.640625 -22.0625 C 11.765625 -22.0625 12.882812 -21.859375 14 -21.453125 C 15.113281 -21.054688 16.046875 -20.390625 16.796875 -19.453125 Z M 12.015625 -4.34375 C 13.222656 -4.34375 14.210938 -4.628906 14.984375 -5.203125 C 15.753906 -5.773438 16.320312 -6.546875 16.6875 -7.515625 C 17.0625 -8.492188 17.25 -9.59375 17.25 -10.8125 C 17.25 -12.03125 17.0625 -13.125 16.6875 -14.09375 C 16.320312 -15.070312 15.753906 -15.847656 14.984375 -16.421875 C 14.210938 -16.992188 13.222656 -17.28125 12.015625 -17.28125 C 10.796875 -17.28125 9.796875 -16.992188 9.015625 -16.421875 C 8.242188 -15.847656 7.671875 -15.066406 7.296875 -14.078125 C 6.921875 -13.097656 6.734375 -12.007812 6.734375 -10.8125 C 6.734375 -9.601562 6.921875 -8.507812 7.296875 -7.53125 C 7.671875 -6.550781 8.242188 -5.773438 9.015625 -5.203125 C 9.796875 -4.628906 10.796875 -4.34375 12.015625 -4.34375 Z M 12.015625 -4.34375 "/></g></g><g style="fill:#ffffff;fill-opacity:1;"><g transform="translate(44.92816, 40.985259)"><path style="stroke:none" d="M 9.046875 0.4375 C 7.578125 0.4375 6.242188 0.160156 5.046875 -0.390625 C 3.859375 -0.941406 2.914062 -1.742188 2.21875 -2.796875 C 1.53125 -3.859375 1.1875 -5.140625 1.1875 -6.640625 C 1.1875 -7.804688 1.40625 -8.789062 1.84375 -9.59375 C 2.289062 -10.394531 2.898438 -11.035156 3.671875 -11.515625 C 4.453125 -12.003906 5.363281 -12.351562 6.40625 -12.5625 C 7.457031 -12.78125 8.585938 -12.890625 9.796875 -12.890625 L 15.421875 -12.890625 C 15.421875 -14.265625 15.0625 -15.367188 14.34375 -16.203125 C 13.625 -17.046875 12.566406 -17.46875 11.171875 -17.46875 C 10.347656 -17.46875 9.609375 -17.320312 8.953125 -17.03125 C 8.296875 -16.738281 7.734375 -16.359375 7.265625 -15.890625 C 6.796875 -15.429688 6.398438 -14.9375 6.078125 -14.40625 L 2.03125 -17.328125 C 2.726562 -18.285156 3.507812 -19.113281 4.375 -19.8125 C 5.238281 -20.519531 6.222656 -21.070312 7.328125 -21.46875 C 8.441406 -21.863281 9.707031 -22.0625 11.125 -22.0625 C 13.082031 -22.0625 14.753906 -21.679688 16.140625 -20.921875 C 17.535156 -20.171875 18.601562 -19.117188 19.34375 -17.765625 C 20.09375 -16.421875 20.46875 -14.867188 20.46875 -13.109375 L 20.46875 0 L 16.125 0 L 15.765625 -3.09375 C 14.847656 -1.738281 13.816406 -0.8125 12.671875 -0.3125 C 11.535156 0.1875 10.328125 0.4375 9.046875 0.4375 Z M 9.796875 -4.03125 C 10.546875 -4.03125 11.253906 -4.160156 11.921875 -4.421875 C 12.597656 -4.691406 13.191406 -5.0625 13.703125 -5.53125 C 14.210938 -6.007812 14.625 -6.550781 14.9375 -7.15625 C 15.25 -7.769531 15.410156 -8.414062 15.421875 -9.09375 L 10.109375 -9.09375 C 8.910156 -9.09375 8.023438 -8.820312 7.453125 -8.28125 C 6.878906 -7.75 6.59375 -7.144531 6.59375 -6.46875 C 6.59375 -5.757812 6.867188 -5.175781 7.421875 -4.71875 C 7.984375 -4.257812 8.773438 -4.03125 9.796875 -4.03125 Z M 9.796875 -4.03125 "/></g></g></g></g><g clip-rule="nonzero" clip-path="url(#c14eb381d8)"><g transform="matrix(1,0,0,1,217,56)"><g id="ab642d9c97" clip-path="url(#e24b1cd35c)"><g style="fill:#ffffff;fill-opacity:1;"><g transform="translate(1.062096, 40.151921)"><path style="stroke:none" d="M 14.796875 0.4375 C 13.671875 0.4375 12.550781 0.234375 11.4375 -0.171875 C 10.332031 -0.578125 9.398438 -1.238281 8.640625 -2.15625 L 8.640625 0 L 3.1875 0 L 3.1875 -30.578125 L 8.640625 -30.578125 L 8.640625 -19.453125 C 9.398438 -20.390625 10.3125 -21.054688 11.375 -21.453125 C 12.445312 -21.859375 13.5625 -22.0625 14.71875 -22.0625 C 16.226562 -22.0625 17.566406 -21.765625 18.734375 -21.171875 C 19.898438 -20.578125 20.875 -19.753906 21.65625 -18.703125 C 22.445312 -17.660156 23.046875 -16.457031 23.453125 -15.09375 C 23.859375 -13.738281 24.0625 -12.3125 24.0625 -10.8125 C 24.0625 -9.3125 23.859375 -7.882812 23.453125 -6.53125 C 23.046875 -5.1875 22.445312 -3.992188 21.65625 -2.953125 C 20.875 -1.910156 19.910156 -1.082031 18.765625 -0.46875 C 17.617188 0.132812 16.296875 0.4375 14.796875 0.4375 Z M 13.484375 -4.4375 C 14.691406 -4.4375 15.6875 -4.71875 16.46875 -5.28125 C 17.25 -5.84375 17.820312 -6.601562 18.1875 -7.5625 C 18.550781 -8.53125 18.734375 -9.613281 18.734375 -10.8125 C 18.734375 -12.007812 18.550781 -13.097656 18.1875 -14.078125 C 17.820312 -15.066406 17.25 -15.847656 16.46875 -16.421875 C 15.6875 -16.992188 14.691406 -17.28125 13.484375 -17.28125 C 12.265625 -17.28125 11.257812 -16.992188 10.46875 -16.421875 C 9.6875 -15.847656 9.101562 -15.070312 8.71875 -14.09375 C 8.34375 -13.125 8.15625 -12.03125 8.15625 -10.8125 C 8.15625 -9.601562 8.34375 -8.519531 8.71875 -7.5625 C 9.101562 -6.601562 9.6875 -5.84375 10.46875 -5.28125 C 11.257812 -4.71875 12.265625 -4.4375 13.484375 -4.4375 Z M 13.484375 -4.4375 "/></g></g><g style="fill:#ffffff;fill-opacity:1;"><g transform="translate(24.293455, 40.151921)"><path style="stroke:none" d="M 12.1875 0.4375 C 10.507812 0.4375 8.992188 0.140625 7.640625 -0.453125 C 6.285156 -1.054688 5.117188 -1.878906 4.140625 -2.921875 C 3.171875 -3.960938 2.421875 -5.160156 1.890625 -6.515625 C 1.367188 -7.878906 1.109375 -9.328125 1.109375 -10.859375 C 1.109375 -12.390625 1.367188 -13.828125 1.890625 -15.171875 C 2.421875 -16.523438 3.171875 -17.71875 4.140625 -18.75 C 5.117188 -19.78125 6.285156 -20.585938 7.640625 -21.171875 C 8.992188 -21.765625 10.507812 -22.0625 12.1875 -22.0625 C 13.851562 -22.0625 15.363281 -21.765625 16.71875 -21.171875 C 18.082031 -20.585938 19.25 -19.78125 20.21875 -18.75 C 21.195312 -17.71875 21.945312 -16.523438 22.46875 -15.171875 C 23 -13.828125 23.265625 -12.390625 23.265625 -10.859375 C 23.265625 -9.328125 23 -7.878906 22.46875 -6.515625 C 21.945312 -5.160156 21.195312 -3.960938 20.21875 -2.921875 C 19.25 -1.878906 18.082031 -1.054688 16.71875 -0.453125 C 15.363281 0.140625 13.851562 0.4375 12.1875 0.4375 Z M 12.1875 -4.109375 C 13.175781 -4.109375 14.023438 -4.289062 14.734375 -4.65625 C 15.453125 -5.03125 16.03125 -5.53125 16.46875 -6.15625 C 16.914062 -6.78125 17.242188 -7.5 17.453125 -8.3125 C 17.660156 -9.132812 17.765625 -9.984375 17.765625 -10.859375 C 17.765625 -11.753906 17.660156 -12.597656 17.453125 -13.390625 C 17.242188 -14.179688 16.914062 -14.882812 16.46875 -15.5 C 16.03125 -16.125 15.453125 -16.613281 14.734375 -16.96875 C 14.023438 -17.320312 13.175781 -17.5 12.1875 -17.5 C 10.851562 -17.5 9.773438 -17.191406 8.953125 -16.578125 C 8.128906 -15.972656 7.53125 -15.164062 7.15625 -14.15625 C 6.78125 -13.144531 6.59375 -12.046875 6.59375 -10.859375 C 6.59375 -9.984375 6.695312 -9.132812 6.90625 -8.3125 C 7.125 -7.5 7.453125 -6.78125 7.890625 -6.15625 C 8.335938 -5.53125 8.914062 -5.03125 9.625 -4.65625 C 10.332031 -4.289062 11.1875 -4.109375 12.1875 -4.109375 Z M 12.1875 -4.109375 "/></g></g><g style="fill:#ffffff;fill-opacity:1;"><g transform="translate(46.486149, 40.151921)"><path style="stroke:none" d="M 3.1875 0 L 3.1875 -30.578125 L 8.546875 -30.578125 L 8.546875 -19.109375 C 9.410156 -20.171875 10.40625 -20.925781 11.53125 -21.375 C 12.65625 -21.832031 13.742188 -22.0625 14.796875 -22.0625 C 16.210938 -22.0625 17.425781 -21.804688 18.4375 -21.296875 C 19.445312 -20.785156 20.269531 -20.09375 20.90625 -19.21875 C 21.550781 -18.351562 22.023438 -17.378906 22.328125 -16.296875 C 22.628906 -15.210938 22.78125 -14.109375 22.78125 -12.984375 L 22.78125 0 L 17.421875 0 L 17.421875 -12.3125 C 17.421875 -13.207031 17.316406 -14.03125 17.109375 -14.78125 C 16.898438 -15.53125 16.515625 -16.132812 15.953125 -16.59375 C 15.398438 -17.050781 14.585938 -17.28125 13.515625 -17.28125 C 12.390625 -17.28125 11.457031 -17.003906 10.71875 -16.453125 C 9.988281 -15.898438 9.441406 -15.144531 9.078125 -14.1875 C 8.722656 -13.226562 8.546875 -12.148438 8.546875 -10.953125 L 8.546875 0 Z M 3.1875 0 "/></g></g><g style="fill:#ffffff;fill-opacity:1;"><g transform="translate(69.566039, 40.151921)"><path style="stroke:none" d="M 12.140625 0.4375 C 10.273438 0.4375 8.65625 0.132812 7.28125 -0.46875 C 5.914062 -1.082031 4.78125 -1.914062 3.875 -2.96875 C 2.96875 -4.019531 2.289062 -5.210938 1.84375 -6.546875 C 1.40625 -7.878906 1.1875 -9.273438 1.1875 -10.734375 C 1.1875 -12.148438 1.394531 -13.523438 1.8125 -14.859375 C 2.226562 -16.203125 2.867188 -17.414062 3.734375 -18.5 C 4.609375 -19.59375 5.710938 -20.457031 7.046875 -21.09375 C 8.378906 -21.738281 9.960938 -22.0625 11.796875 -22.0625 C 13.304688 -22.0625 14.617188 -21.84375 15.734375 -21.40625 C 16.859375 -20.96875 17.804688 -20.375 18.578125 -19.625 C 19.359375 -18.875 19.988281 -18.023438 20.46875 -17.078125 C 20.945312 -16.140625 21.289062 -15.160156 21.5 -14.140625 C 21.707031 -13.117188 21.8125 -12.128906 21.8125 -11.171875 C 21.8125 -10.722656 21.789062 -10.300781 21.75 -9.90625 C 21.71875 -9.519531 21.671875 -9.25 21.609375 -9.09375 L 6.765625 -9.09375 C 6.929688 -8.15625 7.21875 -7.328125 7.625 -6.609375 C 8.039062 -5.898438 8.625 -5.34375 9.375 -4.9375 C 10.125 -4.539062 11.0625 -4.34375 12.1875 -4.34375 C 13.164062 -4.34375 14.085938 -4.515625 14.953125 -4.859375 C 15.816406 -5.210938 16.625 -5.804688 17.375 -6.640625 L 21.015625 -3.46875 C 19.828125 -2.15625 18.503906 -1.175781 17.046875 -0.53125 C 15.585938 0.113281 13.953125 0.4375 12.140625 0.4375 Z M 6.765625 -12.890625 L 16.625 -12.890625 C 16.445312 -14.429688 15.929688 -15.609375 15.078125 -16.421875 C 14.222656 -17.234375 13.113281 -17.640625 11.75 -17.640625 C 10.707031 -17.640625 9.847656 -17.429688 9.171875 -17.015625 C 8.503906 -16.609375 7.976562 -16.046875 7.59375 -15.328125 C 7.21875 -14.617188 6.941406 -13.804688 6.765625 -12.890625 Z M 6.765625 -12.890625 "/></g></g><g style="fill:#ffffff;fill-opacity:1;"><g transform="translate(90.438768, 40.151921)"><path style="stroke:none" d="M 3.140625 0 L 3.140625 -21.609375 L 8.453125 -21.609375 L 8.453125 -19.359375 C 9.179688 -20.347656 10.023438 -21.046875 10.984375 -21.453125 C 11.953125 -21.859375 12.941406 -22.0625 13.953125 -22.0625 C 15.265625 -22.0625 16.425781 -21.75 17.4375 -21.125 C 18.457031 -20.5 19.320312 -19.546875 20.03125 -18.265625 C 20.882812 -19.585938 21.941406 -20.550781 23.203125 -21.15625 C 24.460938 -21.757812 25.796875 -22.0625 27.203125 -22.0625 C 28.585938 -22.0625 29.78125 -21.804688 30.78125 -21.296875 C 31.78125 -20.785156 32.609375 -20.097656 33.265625 -19.234375 C 33.921875 -18.367188 34.40625 -17.394531 34.71875 -16.3125 C 35.03125 -15.226562 35.1875 -14.117188 35.1875 -12.984375 L 35.1875 0 L 29.8125 0 L 29.8125 -12.3125 C 29.8125 -13.207031 29.707031 -14.019531 29.5 -14.75 C 29.300781 -15.476562 28.953125 -16.0625 28.453125 -16.5 C 27.953125 -16.9375 27.242188 -17.15625 26.328125 -17.15625 C 25.378906 -17.15625 24.566406 -16.910156 23.890625 -16.421875 C 23.210938 -15.941406 22.695312 -15.304688 22.34375 -14.515625 C 21.988281 -13.722656 21.8125 -12.84375 21.8125 -11.875 L 21.8125 0 L 16.4375 0 L 16.4375 -12.390625 C 16.4375 -13.273438 16.335938 -14.070312 16.140625 -14.78125 C 15.953125 -15.5 15.613281 -16.070312 15.125 -16.5 C 14.632812 -16.9375 13.9375 -17.15625 13.03125 -17.15625 C 12.070312 -17.15625 11.25 -16.910156 10.5625 -16.421875 C 9.882812 -15.941406 9.363281 -15.304688 9 -14.515625 C 8.632812 -13.722656 8.453125 -12.84375 8.453125 -11.875 L 8.453125 0 Z M 3.140625 0 "/></g></g></g></g></g></g></g></g></g></svg>
